<?xml version="1.0" encoding="utf-8"?>
<!-- Generator: Adobe Illustrator 22.0.1, SVG Export Plug-In . SVG Version: 6.00 Build 0)  -->
<svg version="1.1" id="Layer_1" xmlns="http://www.w3.org/2000/svg" xmlns:xlink="http://www.w3.org/1999/xlink" x="0px" y="0px"
	 viewBox="0 0 1517.6 137.4" style="enable-background:new 0 0 1517.6 137.4;" xml:space="preserve">
<style type="text/css">
	.st0{fill:url(#SVGID_1_);}
	.st1{fill:url(#SVGID_2_);}
	.st2{fill:url(#SVGID_3_);}
	.st3{fill:url(#SVGID_4_);}
	.st4{fill:url(#SVGID_5_);}
	.st5{fill:url(#SVGID_6_);}
	.st6{fill:url(#SVGID_7_);}
	.st7{fill:url(#SVGID_8_);}
	.st8{fill:url(#SVGID_9_);}
	.st9{fill:url(#SVGID_10_);}
	.st10{fill:url(#SVGID_11_);}
	.st11{fill:url(#SVGID_12_);}
	.st12{fill:url(#SVGID_13_);}
	.st13{fill:url(#SVGID_14_);}
	.st14{fill:url(#SVGID_15_);}
	.st15{fill:url(#SVGID_16_);}
</style>
<g>
	<linearGradient id="SVGID_1_" gradientUnits="userSpaceOnUse" x1="257.1943" y1="117.6569" x2="257.1943" y2="20.6403">
		<stop  offset="0" style="stop-color:#005B97"/>
		<stop  offset="5.174784e-02" style="stop-color:#0061A0"/>
		<stop  offset="0.1375" style="stop-color:#0072BA"/>
		<stop  offset="0.15" style="stop-color:#0075BE"/>
		<stop  offset="0.4" style="stop-color:#0096BE"/>
	</linearGradient>
	<path class="st0" d="M218.5,111.8V26.5c0-3.8,2.1-5.9,5.9-5.9h14.3c3.8,0,5.9,2.1,5.9,5.9V53l22.8-29c2-2.5,4.2-3.3,7.2-3.3h15.6
		c5.1,0,6.6,3.3,3.4,7.2l-33.3,40.2l33.8,42.2c3.2,4,1.8,7.2-3.3,7.2h-16.8c-3,0-5.2-0.9-7.2-3.4l-22.3-29v26.5
		c0,3.8-2.1,5.9-5.9,5.9h-14.3C220.6,117.7,218.5,115.6,218.5,111.8z"/>
	<linearGradient id="SVGID_2_" gradientUnits="userSpaceOnUse" x1="370.4568" y1="120.0168" x2="370.4568" y2="18.1494">
		<stop  offset="0" style="stop-color:#005B97"/>
		<stop  offset="5.174784e-02" style="stop-color:#0061A0"/>
		<stop  offset="0.1375" style="stop-color:#0072BA"/>
		<stop  offset="0.15" style="stop-color:#0075BE"/>
		<stop  offset="0.4" style="stop-color:#0096BE"/>
	</linearGradient>
	<path class="st1" d="M318.1,69.1c0-28.2,22.8-51,52.3-51c29.4,0,52.3,22.8,52.3,51c0,28.1-22.9,50.9-52.3,50.9
		C341,120,318.1,97.2,318.1,69.1z M395.2,69.1c0-14.4-10.4-26.2-24.8-26.2s-24.9,11.8-24.9,26.2s10.5,26.1,24.9,26.1
		S395.2,83.6,395.2,69.1z"/>
	<linearGradient id="SVGID_3_" gradientUnits="userSpaceOnUse" x1="505.2978" y1="117.6569" x2="505.2978" y2="20.6403">
		<stop  offset="0" style="stop-color:#005B97"/>
		<stop  offset="5.174784e-02" style="stop-color:#0061A0"/>
		<stop  offset="0.1375" style="stop-color:#0072BA"/>
		<stop  offset="0.15" style="stop-color:#0075BE"/>
		<stop  offset="0.4" style="stop-color:#0096BE"/>
	</linearGradient>
	<path class="st2" d="M454.9,111.8V26.5c0-3.8,2.1-5.9,5.9-5.9H477c3.3,0,5.6,1.3,6.9,4.5l21.2,51.8l21.4-51.8
		c1.3-3.1,3.7-4.5,6.9-4.5h16.3c3.8,0,5.9,2.1,5.9,5.9v85.2c0,3.8-2.1,5.9-5.9,5.9h-14c-3.8,0-5.9-2.1-5.9-5.9V71.4l-15.7,41.7
		c-1.2,3.1-3.5,4.6-6.9,4.6h-3.8c-3.4,0-5.8-1.4-6.9-4.6l-15.7-41.6v40.2c0,3.8-2.1,5.9-5.9,5.9h-14
		C457,117.7,454.9,115.6,454.9,111.8z"/>
	<linearGradient id="SVGID_4_" gradientUnits="userSpaceOnUse" x1="640.6631" y1="120.0168" x2="640.6631" y2="20.6403">
		<stop  offset="0" style="stop-color:#005B97"/>
		<stop  offset="5.174784e-02" style="stop-color:#0061A0"/>
		<stop  offset="0.1375" style="stop-color:#0072BA"/>
		<stop  offset="0.15" style="stop-color:#0075BE"/>
		<stop  offset="0.4" style="stop-color:#0096BE"/>
	</linearGradient>
	<path class="st3" d="M595.7,72.2V26.5c0-3.9,2-5.9,5.9-5.9h14.3c3.9,0,5.9,2,5.9,5.9v45.6c0,15.6,7.3,23.7,18.9,23.7
		c11.7,0,18.7-8.4,18.7-23.7V26.5c0-3.9,2-5.9,5.9-5.9h14.4c3.9,0,5.9,2,5.9,5.9v45.6c0,29.6-20.5,47.9-45,47.9
		C615.8,120,595.7,101.7,595.7,72.2z"/>
	<linearGradient id="SVGID_5_" gradientUnits="userSpaceOnUse" x1="766.2756" y1="117.6569" x2="766.2756" y2="20.6403">
		<stop  offset="0" style="stop-color:#005B97"/>
		<stop  offset="5.174784e-02" style="stop-color:#0061A0"/>
		<stop  offset="0.1375" style="stop-color:#0072BA"/>
		<stop  offset="0.15" style="stop-color:#0075BE"/>
		<stop  offset="0.4" style="stop-color:#0096BE"/>
	</linearGradient>
	<path class="st4" d="M725.2,111.8V26.5c0-3.8,2.1-5.9,5.9-5.9h15.2c3.3,0,5.5,1.2,7.2,3.8l27.7,42.6V26.5c0-3.8,2.1-5.9,5.9-5.9
		h14.3c3.8,0,5.9,2.1,5.9,5.9v85.2c0,3.8-2.1,5.9-5.9,5.9h-12.6c-3.3,0-5.4-1-7.2-3.8l-30.3-46.9v44.8c0,3.8-2.1,5.9-5.9,5.9h-14.3
		C727.3,117.7,725.2,115.6,725.2,111.8z"/>
	<linearGradient id="SVGID_6_" gradientUnits="userSpaceOnUse" x1="863.3975" y1="117.6569" x2="863.3975" y2="20.6403">
		<stop  offset="0" style="stop-color:#005B97"/>
		<stop  offset="5.174784e-02" style="stop-color:#0061A0"/>
		<stop  offset="0.1375" style="stop-color:#0072BA"/>
		<stop  offset="0.15" style="stop-color:#0075BE"/>
		<stop  offset="0.4" style="stop-color:#0096BE"/>
	</linearGradient>
	<path class="st5" d="M850.4,111.8V26.5c0-3.8,2.1-5.9,5.9-5.9h14.3c3.8,0,5.9,2.1,5.9,5.9v85.2c0,3.8-2.1,5.9-5.9,5.9h-14.3
		C852.5,117.7,850.4,115.6,850.4,111.8z"/>
	<linearGradient id="SVGID_7_" gradientUnits="userSpaceOnUse" x1="950.5479" y1="117.6569" x2="950.5479" y2="20.6403">
		<stop  offset="0" style="stop-color:#005B97"/>
		<stop  offset="5.174784e-02" style="stop-color:#0061A0"/>
		<stop  offset="0.1375" style="stop-color:#0072BA"/>
		<stop  offset="0.15" style="stop-color:#0075BE"/>
		<stop  offset="0.4" style="stop-color:#0096BE"/>
	</linearGradient>
	<path class="st6" d="M983.3,117.7H969c-3.8,0-5.9-2.1-5.9-5.9V85.3l-22.3,29c-2,2.5-4.2,3.4-7.2,3.4h-16.8c-5.1,0-6.5-3.2-3.3-7.2
		l33.8-42.2L914.1,28c-3.1-3.9-1.7-7.2,3.4-7.2h15.6c3,0,5.2,0.8,7.2,3.3l22.8,29V26.5c0-3.8,2.1-5.9,5.9-5.9h14.3
		c3.8,0,5.9,2.1,5.9,5.9v85.2C989.2,115.6,987.1,117.7,983.3,117.7z"/>
	<linearGradient id="SVGID_8_" gradientUnits="userSpaceOnUse" x1="1066.2861" y1="117.6569" x2="1066.2861" y2="20.6403">
		<stop  offset="0" style="stop-color:#005B97"/>
		<stop  offset="5.174784e-02" style="stop-color:#0061A0"/>
		<stop  offset="0.1375" style="stop-color:#0072BA"/>
		<stop  offset="0.15" style="stop-color:#0075BE"/>
		<stop  offset="0.4" style="stop-color:#0096BE"/>
	</linearGradient>
	<path class="st7" d="M1020.3,110.8l29.4-85.5c1-3.1,3.3-4.7,6.7-4.7h19.9c3.5,0,5.8,1.6,6.8,4.7l29.2,85.5c1.4,4.2-0.4,6.8-4.9,6.8
		h-14.6c-3.5,0-6.9-1.6-8-4.9l-4.5-13.1h-27.9l-4.6,13.1c-1.2,3.3-3.3,4.9-6.8,4.9h-16C1020.7,117.7,1018.8,115,1020.3,110.8z
		 M1075.9,79.4l-9.6-29.2l-8.7,29.2H1075.9z"/>
	<linearGradient id="SVGID_9_" gradientUnits="userSpaceOnUse" x1="1166.9819" y1="117.6569" x2="1166.9819" y2="20.6403">
		<stop  offset="0" style="stop-color:#005B97"/>
		<stop  offset="5.174784e-02" style="stop-color:#0061A0"/>
		<stop  offset="0.1375" style="stop-color:#0072BA"/>
		<stop  offset="0.15" style="stop-color:#0075BE"/>
		<stop  offset="0.4" style="stop-color:#0096BE"/>
	</linearGradient>
	<path class="st8" d="M1153.9,111.8V45.4h-19.5c-3.8,0-5.9-2.1-5.9-5.9v-13c0-3.8,2.1-5.9,5.9-5.9h65.2c3.8,0,5.9,2.1,5.9,5.9v13
		c0,3.8-2.1,5.9-5.9,5.9H1180v66.3c0,3.8-2.1,5.9-5.9,5.9h-14.3C1156,117.7,1153.9,115.6,1153.9,111.8z"/>
	<linearGradient id="SVGID_10_" gradientUnits="userSpaceOnUse" x1="1274.9473" y1="117.6569" x2="1274.9473" y2="20.6403">
		<stop  offset="0" style="stop-color:#005B97"/>
		<stop  offset="5.174784e-02" style="stop-color:#0061A0"/>
		<stop  offset="0.1375" style="stop-color:#0072BA"/>
		<stop  offset="0.15" style="stop-color:#0075BE"/>
		<stop  offset="0.4" style="stop-color:#0096BE"/>
	</linearGradient>
	<path class="st9" d="M1240.3,111.8V26.5c0-3.8,2.1-5.9,5.9-5.9h57.6c3.8,0,5.9,2.1,5.9,5.9v13c0,3.8-2.1,5.9-5.9,5.9h-36.1v12.2
		h26.2c3.8,0,5.9,2.1,5.9,5.9v11.1c0,3.8-2.1,5.9-5.9,5.9h-26.2v12.3h36.1c3.8,0,5.9,2.1,5.9,5.9v13c0,3.8-2.1,5.9-5.9,5.9h-57.6
		C1242.4,117.7,1240.3,115.6,1240.3,111.8z"/>
</g>
<g>
	<linearGradient id="SVGID_11_" gradientUnits="userSpaceOnUse" x1="153.4981" y1="89.4956" x2="153.4981" y2="49.9956">
		<stop  offset="0" style="stop-color:#005B97"/>
		<stop  offset="5.174784e-02" style="stop-color:#0061A0"/>
		<stop  offset="0.1375" style="stop-color:#0072BA"/>
		<stop  offset="0.15" style="stop-color:#0075BE"/>
		<stop  offset="0.4" style="stop-color:#0096BE"/>
	</linearGradient>
	<circle class="st10" cx="153.5" cy="69.7" r="19.8"/>
	<linearGradient id="SVGID_12_" gradientUnits="userSpaceOnUse" x1="90.2293" y1="85.9956" x2="90.2293" y2="52.9581">
		<stop  offset="0" style="stop-color:#005B97"/>
		<stop  offset="5.174784e-02" style="stop-color:#0061A0"/>
		<stop  offset="0.1375" style="stop-color:#0072BA"/>
		<stop  offset="0.15" style="stop-color:#0075BE"/>
		<stop  offset="0.4" style="stop-color:#0096BE"/>
	</linearGradient>
	<circle class="st11" cx="90.2" cy="69.5" r="16.5"/>
	<linearGradient id="SVGID_13_" gradientUnits="userSpaceOnUse" x1="34.7293" y1="82.6918" x2="34.7293" y2="56.2618">
		<stop  offset="0" style="stop-color:#005B97"/>
		<stop  offset="5.174784e-02" style="stop-color:#0061A0"/>
		<stop  offset="0.1375" style="stop-color:#0072BA"/>
		<stop  offset="0.15" style="stop-color:#0075BE"/>
		<stop  offset="0.4" style="stop-color:#0096BE"/>
	</linearGradient>
	<circle class="st12" cx="34.7" cy="69.5" r="13.2"/>
</g>
<g>
	<linearGradient id="SVGID_14_" gradientUnits="userSpaceOnUse" x1="1361.2643" y1="89.4956" x2="1361.2643" y2="49.9956">
		<stop  offset="0" style="stop-color:#005B97"/>
		<stop  offset="5.174784e-02" style="stop-color:#0061A0"/>
		<stop  offset="0.1375" style="stop-color:#0072BA"/>
		<stop  offset="0.15" style="stop-color:#0075BE"/>
		<stop  offset="0.4" style="stop-color:#0096BE"/>
	</linearGradient>
	<circle class="st13" cx="1361.3" cy="69.7" r="19.8"/>
	<linearGradient id="SVGID_15_" gradientUnits="userSpaceOnUse" x1="1424.5331" y1="86.5331" x2="1424.5331" y2="53.4956">
		<stop  offset="0" style="stop-color:#005B97"/>
		<stop  offset="5.174784e-02" style="stop-color:#0061A0"/>
		<stop  offset="0.1375" style="stop-color:#0072BA"/>
		<stop  offset="0.15" style="stop-color:#0075BE"/>
		<stop  offset="0.4" style="stop-color:#0096BE"/>
	</linearGradient>
	<circle class="st14" cx="1424.5" cy="70" r="16.5"/>
	<linearGradient id="SVGID_16_" gradientUnits="userSpaceOnUse" x1="1480.0331" y1="83.2293" x2="1480.0331" y2="56.7993">
		<stop  offset="0" style="stop-color:#005B97"/>
		<stop  offset="5.174784e-02" style="stop-color:#0061A0"/>
		<stop  offset="0.1375" style="stop-color:#0072BA"/>
		<stop  offset="0.15" style="stop-color:#0075BE"/>
		<stop  offset="0.4" style="stop-color:#0096BE"/>
	</linearGradient>
	<circle class="st15" cx="1480" cy="70" r="13.2"/>
</g>
</svg>
