<?xml version="1.0" encoding="utf-8"?>
<!-- Generator: Adobe Illustrator 22.0.1, SVG Export Plug-In . SVG Version: 6.00 Build 0)  -->
<svg version="1.1" id="Layer_1" xmlns="http://www.w3.org/2000/svg" xmlns:xlink="http://www.w3.org/1999/xlink" x="0px" y="0px"
	 viewBox="0 0 1517.6 234.9" style="enable-background:new 0 0 1517.6 234.9;" xml:space="preserve">
<style type="text/css">
	.st0{fill:url(#SVGID_1_);}
	.st1{fill:url(#SVGID_2_);}
	.st2{fill:url(#SVGID_3_);}
	.st3{fill:url(#SVGID_4_);}
	.st4{fill:url(#SVGID_5_);}
	.st5{fill:url(#SVGID_6_);}
	.st6{fill:url(#SVGID_7_);}
	.st7{fill:url(#SVGID_8_);}
	.st8{fill:url(#SVGID_9_);}
	.st9{fill:url(#SVGID_10_);}
	.st10{fill:url(#SVGID_11_);}
	.st11{fill:url(#SVGID_12_);}
	.st12{fill:url(#SVGID_13_);}
	.st13{fill:url(#SVGID_14_);}
	.st14{fill:url(#SVGID_15_);}
	.st15{fill:url(#SVGID_16_);}
</style>
<g>
	<linearGradient id="SVGID_1_" gradientUnits="userSpaceOnUse" x1="257.1943" y1="117.6569" x2="257.1943" y2="20.6403">
		<stop  offset="0" style="stop-color:#005B97"/>
		<stop  offset="5.174784e-02" style="stop-color:#0061A0"/>
		<stop  offset="0.1375" style="stop-color:#0072BA"/>
		<stop  offset="0.15" style="stop-color:#0075BE"/>
		<stop  offset="0.4" style="stop-color:#0096BE"/>
	</linearGradient>
	<path class="st0" d="M218.5,111.8V26.5c0-3.8,2.1-5.9,5.9-5.9h14.3c3.8,0,5.9,2.1,5.9,5.9V53l22.8-29c2-2.5,4.2-3.3,7.2-3.3h15.6
		c5.1,0,6.6,3.3,3.4,7.2l-33.3,40.2l33.8,42.2c3.2,4,1.8,7.2-3.3,7.2h-16.8c-3,0-5.2-0.9-7.2-3.4l-22.3-29v26.5
		c0,3.8-2.1,5.9-5.9,5.9h-14.3C220.6,117.7,218.5,115.6,218.5,111.8z"/>
	<linearGradient id="SVGID_2_" gradientUnits="userSpaceOnUse" x1="370.4568" y1="120.0168" x2="370.4568" y2="18.1494">
		<stop  offset="0" style="stop-color:#005B97"/>
		<stop  offset="5.174784e-02" style="stop-color:#0061A0"/>
		<stop  offset="0.1375" style="stop-color:#0072BA"/>
		<stop  offset="0.15" style="stop-color:#0075BE"/>
		<stop  offset="0.4" style="stop-color:#0096BE"/>
	</linearGradient>
	<path class="st1" d="M318.1,69.1c0-28.2,22.8-51,52.3-51c29.4,0,52.3,22.8,52.3,51c0,28.1-22.9,50.9-52.3,50.9
		C341,120,318.1,97.2,318.1,69.1z M395.2,69.1c0-14.4-10.4-26.2-24.8-26.2s-24.9,11.8-24.9,26.2s10.5,26.1,24.9,26.1
		S395.2,83.6,395.2,69.1z"/>
	<linearGradient id="SVGID_3_" gradientUnits="userSpaceOnUse" x1="505.2978" y1="117.6569" x2="505.2978" y2="20.6403">
		<stop  offset="0" style="stop-color:#005B97"/>
		<stop  offset="5.174784e-02" style="stop-color:#0061A0"/>
		<stop  offset="0.1375" style="stop-color:#0072BA"/>
		<stop  offset="0.15" style="stop-color:#0075BE"/>
		<stop  offset="0.4" style="stop-color:#0096BE"/>
	</linearGradient>
	<path class="st2" d="M454.9,111.8V26.5c0-3.8,2.1-5.9,5.9-5.9H477c3.3,0,5.6,1.3,6.9,4.5l21.2,51.8l21.4-51.8
		c1.3-3.1,3.7-4.5,6.9-4.5h16.3c3.8,0,5.9,2.1,5.9,5.9v85.2c0,3.8-2.1,5.9-5.9,5.9h-14c-3.8,0-5.9-2.1-5.9-5.9V71.4l-15.7,41.7
		c-1.2,3.1-3.5,4.6-6.9,4.6h-3.8c-3.4,0-5.8-1.4-6.9-4.6l-15.7-41.6v40.2c0,3.8-2.1,5.9-5.9,5.9h-14
		C457,117.7,454.9,115.6,454.9,111.8z"/>
	<linearGradient id="SVGID_4_" gradientUnits="userSpaceOnUse" x1="640.6631" y1="120.0168" x2="640.6631" y2="20.6403">
		<stop  offset="0" style="stop-color:#005B97"/>
		<stop  offset="5.174784e-02" style="stop-color:#0061A0"/>
		<stop  offset="0.1375" style="stop-color:#0072BA"/>
		<stop  offset="0.15" style="stop-color:#0075BE"/>
		<stop  offset="0.4" style="stop-color:#0096BE"/>
	</linearGradient>
	<path class="st3" d="M595.7,72.2V26.5c0-3.9,2-5.9,5.9-5.9h14.3c3.9,0,5.9,2,5.9,5.9v45.6c0,15.6,7.3,23.7,18.9,23.7
		c11.7,0,18.7-8.4,18.7-23.7V26.5c0-3.9,2-5.9,5.9-5.9h14.4c3.9,0,5.9,2,5.9,5.9v45.6c0,29.6-20.5,47.9-45,47.9
		C615.8,120,595.7,101.7,595.7,72.2z"/>
	<linearGradient id="SVGID_5_" gradientUnits="userSpaceOnUse" x1="766.2756" y1="117.6569" x2="766.2756" y2="20.6403">
		<stop  offset="0" style="stop-color:#005B97"/>
		<stop  offset="5.174784e-02" style="stop-color:#0061A0"/>
		<stop  offset="0.1375" style="stop-color:#0072BA"/>
		<stop  offset="0.15" style="stop-color:#0075BE"/>
		<stop  offset="0.4" style="stop-color:#0096BE"/>
	</linearGradient>
	<path class="st4" d="M725.2,111.8V26.5c0-3.8,2.1-5.9,5.9-5.9h15.2c3.3,0,5.5,1.2,7.2,3.8l27.7,42.6V26.5c0-3.8,2.1-5.9,5.9-5.9
		h14.3c3.8,0,5.9,2.1,5.9,5.9v85.2c0,3.8-2.1,5.9-5.9,5.9h-12.6c-3.3,0-5.4-1-7.2-3.8l-30.3-46.9v44.8c0,3.8-2.1,5.9-5.9,5.9h-14.3
		C727.3,117.7,725.2,115.6,725.2,111.8z"/>
	<linearGradient id="SVGID_6_" gradientUnits="userSpaceOnUse" x1="863.3975" y1="117.6569" x2="863.3975" y2="20.6403">
		<stop  offset="0" style="stop-color:#005B97"/>
		<stop  offset="5.174784e-02" style="stop-color:#0061A0"/>
		<stop  offset="0.1375" style="stop-color:#0072BA"/>
		<stop  offset="0.15" style="stop-color:#0075BE"/>
		<stop  offset="0.4" style="stop-color:#0096BE"/>
	</linearGradient>
	<path class="st5" d="M850.4,111.8V26.5c0-3.8,2.1-5.9,5.9-5.9h14.3c3.8,0,5.9,2.1,5.9,5.9v85.2c0,3.8-2.1,5.9-5.9,5.9h-14.3
		C852.5,117.7,850.4,115.6,850.4,111.8z"/>
	<linearGradient id="SVGID_7_" gradientUnits="userSpaceOnUse" x1="950.5479" y1="117.6569" x2="950.5479" y2="20.6403">
		<stop  offset="0" style="stop-color:#005B97"/>
		<stop  offset="5.174784e-02" style="stop-color:#0061A0"/>
		<stop  offset="0.1375" style="stop-color:#0072BA"/>
		<stop  offset="0.15" style="stop-color:#0075BE"/>
		<stop  offset="0.4" style="stop-color:#0096BE"/>
	</linearGradient>
	<path class="st6" d="M983.3,117.7H969c-3.8,0-5.9-2.1-5.9-5.9V85.3l-22.3,29c-2,2.5-4.2,3.4-7.2,3.4h-16.8c-5.1,0-6.5-3.2-3.3-7.2
		l33.8-42.2L914.1,28c-3.1-3.9-1.7-7.2,3.4-7.2h15.6c3,0,5.2,0.8,7.2,3.3l22.8,29V26.5c0-3.8,2.1-5.9,5.9-5.9h14.3
		c3.8,0,5.9,2.1,5.9,5.9v85.2C989.2,115.6,987.1,117.7,983.3,117.7z"/>
	<linearGradient id="SVGID_8_" gradientUnits="userSpaceOnUse" x1="1066.2861" y1="117.6569" x2="1066.2861" y2="20.6403">
		<stop  offset="0" style="stop-color:#005B97"/>
		<stop  offset="5.174784e-02" style="stop-color:#0061A0"/>
		<stop  offset="0.1375" style="stop-color:#0072BA"/>
		<stop  offset="0.15" style="stop-color:#0075BE"/>
		<stop  offset="0.4" style="stop-color:#0096BE"/>
	</linearGradient>
	<path class="st7" d="M1020.3,110.8l29.4-85.5c1-3.1,3.3-4.7,6.7-4.7h19.9c3.5,0,5.8,1.6,6.8,4.7l29.2,85.5c1.4,4.2-0.4,6.8-4.9,6.8
		h-14.6c-3.5,0-6.9-1.6-8-4.9l-4.5-13.1h-27.9l-4.6,13.1c-1.2,3.3-3.3,4.9-6.8,4.9h-16C1020.7,117.7,1018.8,115,1020.3,110.8z
		 M1075.9,79.4l-9.6-29.2l-8.7,29.2H1075.9z"/>
	<linearGradient id="SVGID_9_" gradientUnits="userSpaceOnUse" x1="1166.9819" y1="117.6569" x2="1166.9819" y2="20.6403">
		<stop  offset="0" style="stop-color:#005B97"/>
		<stop  offset="5.174784e-02" style="stop-color:#0061A0"/>
		<stop  offset="0.1375" style="stop-color:#0072BA"/>
		<stop  offset="0.15" style="stop-color:#0075BE"/>
		<stop  offset="0.4" style="stop-color:#0096BE"/>
	</linearGradient>
	<path class="st8" d="M1153.9,111.8V45.4h-19.5c-3.8,0-5.9-2.1-5.9-5.9v-13c0-3.8,2.1-5.9,5.9-5.9h65.2c3.8,0,5.9,2.1,5.9,5.9v13
		c0,3.8-2.1,5.9-5.9,5.9H1180v66.3c0,3.8-2.1,5.9-5.9,5.9h-14.3C1156,117.7,1153.9,115.6,1153.9,111.8z"/>
	<linearGradient id="SVGID_10_" gradientUnits="userSpaceOnUse" x1="1274.9473" y1="117.6569" x2="1274.9473" y2="20.6403">
		<stop  offset="0" style="stop-color:#005B97"/>
		<stop  offset="5.174784e-02" style="stop-color:#0061A0"/>
		<stop  offset="0.1375" style="stop-color:#0072BA"/>
		<stop  offset="0.15" style="stop-color:#0075BE"/>
		<stop  offset="0.4" style="stop-color:#0096BE"/>
	</linearGradient>
	<path class="st9" d="M1240.3,111.8V26.5c0-3.8,2.1-5.9,5.9-5.9h57.6c3.8,0,5.9,2.1,5.9,5.9v13c0,3.8-2.1,5.9-5.9,5.9h-36.1v12.2
		h26.2c3.8,0,5.9,2.1,5.9,5.9v11.1c0,3.8-2.1,5.9-5.9,5.9h-26.2v12.3h36.1c3.8,0,5.9,2.1,5.9,5.9v13c0,3.8-2.1,5.9-5.9,5.9h-57.6
		C1242.4,117.7,1240.3,115.6,1240.3,111.8z"/>
</g>
<g>
	<linearGradient id="SVGID_11_" gradientUnits="userSpaceOnUse" x1="153.4981" y1="89.4956" x2="153.4981" y2="49.9956">
		<stop  offset="0" style="stop-color:#005B97"/>
		<stop  offset="5.174784e-02" style="stop-color:#0061A0"/>
		<stop  offset="0.1375" style="stop-color:#0072BA"/>
		<stop  offset="0.15" style="stop-color:#0075BE"/>
		<stop  offset="0.4" style="stop-color:#0096BE"/>
	</linearGradient>
	<circle class="st10" cx="153.5" cy="69.7" r="19.8"/>
	<linearGradient id="SVGID_12_" gradientUnits="userSpaceOnUse" x1="90.2293" y1="85.9956" x2="90.2293" y2="52.9581">
		<stop  offset="0" style="stop-color:#005B97"/>
		<stop  offset="5.174784e-02" style="stop-color:#0061A0"/>
		<stop  offset="0.1375" style="stop-color:#0072BA"/>
		<stop  offset="0.15" style="stop-color:#0075BE"/>
		<stop  offset="0.4" style="stop-color:#0096BE"/>
	</linearGradient>
	<circle class="st11" cx="90.2" cy="69.5" r="16.5"/>
	<linearGradient id="SVGID_13_" gradientUnits="userSpaceOnUse" x1="34.7293" y1="82.6918" x2="34.7293" y2="56.2618">
		<stop  offset="0" style="stop-color:#005B97"/>
		<stop  offset="5.174784e-02" style="stop-color:#0061A0"/>
		<stop  offset="0.1375" style="stop-color:#0072BA"/>
		<stop  offset="0.15" style="stop-color:#0075BE"/>
		<stop  offset="0.4" style="stop-color:#0096BE"/>
	</linearGradient>
	<circle class="st12" cx="34.7" cy="69.5" r="13.2"/>
</g>
<g>
	<linearGradient id="SVGID_14_" gradientUnits="userSpaceOnUse" x1="1361.2643" y1="89.4956" x2="1361.2643" y2="49.9956">
		<stop  offset="0" style="stop-color:#005B97"/>
		<stop  offset="5.174784e-02" style="stop-color:#0061A0"/>
		<stop  offset="0.1375" style="stop-color:#0072BA"/>
		<stop  offset="0.15" style="stop-color:#0075BE"/>
		<stop  offset="0.4" style="stop-color:#0096BE"/>
	</linearGradient>
	<circle class="st13" cx="1361.3" cy="69.7" r="19.8"/>
	<linearGradient id="SVGID_15_" gradientUnits="userSpaceOnUse" x1="1424.5331" y1="86.5331" x2="1424.5331" y2="53.4956">
		<stop  offset="0" style="stop-color:#005B97"/>
		<stop  offset="5.174784e-02" style="stop-color:#0061A0"/>
		<stop  offset="0.1375" style="stop-color:#0072BA"/>
		<stop  offset="0.15" style="stop-color:#0075BE"/>
		<stop  offset="0.4" style="stop-color:#0096BE"/>
	</linearGradient>
	<circle class="st14" cx="1424.5" cy="70" r="16.5"/>
	<linearGradient id="SVGID_16_" gradientUnits="userSpaceOnUse" x1="1480.0331" y1="83.2293" x2="1480.0331" y2="56.7993">
		<stop  offset="0" style="stop-color:#005B97"/>
		<stop  offset="5.174784e-02" style="stop-color:#0061A0"/>
		<stop  offset="0.1375" style="stop-color:#0072BA"/>
		<stop  offset="0.15" style="stop-color:#0075BE"/>
		<stop  offset="0.4" style="stop-color:#0096BE"/>
	</linearGradient>
	<circle class="st15" cx="1480" cy="70" r="13.2"/>
</g>
<g>
	<path d="M223.9,211c-1.2,0-2.1-0.4-2.9-1.2c-0.7-0.8-1.1-1.7-1.1-2.9l0-33.9c0-1.2,0.4-2.1,1.1-2.9c0.7-0.8,1.7-1.2,2.9-1.2
		c1.1,0,2.1,0.4,2.8,1.2c0.8,0.8,1.2,1.7,1.2,2.9l0,9l-0.8-3.4c0.4-1.5,1.1-2.9,2-4.2c0.9-1.3,1.9-2.4,3.2-3.4
		c1.2-1,2.6-1.7,4.1-2.2c1.5-0.5,3.1-0.8,4.8-0.8c1.4,0,2.6,0.4,3.6,1.1c1,0.7,1.5,1.7,1.5,2.8c0,1.4-0.4,2.5-1.1,3.2
		c-0.7,0.7-1.6,1-2.5,1c-0.8,0-1.6-0.2-2.3-0.5c-0.7-0.3-1.6-0.5-2.6-0.5c-1.1,0-2.3,0.3-3.4,0.9c-1.2,0.6-2.2,1.5-3.2,2.6
		c-1,1.1-1.7,2.5-2.3,4c-0.6,1.5-0.8,3.3-0.8,5.2l0,19.2c0,1.2-0.4,2.1-1.2,2.9C225.9,210.6,225,211,223.9,211z"/>
	<path d="M277.1,211.8c-4.4,0-8.2-0.9-11.5-2.8c-3.3-1.8-5.8-4.4-7.6-7.6c-1.8-3.2-2.7-6.9-2.7-11.1c0-4.7,0.9-8.7,2.8-12
		c1.9-3.3,4.4-5.9,7.4-7.7c3.1-1.8,6.3-2.7,9.7-2.7c2.6,0,5,0.5,7.4,1.6c2.4,1,4.5,2.5,6.3,4.3c1.8,1.8,3.3,4,4.3,6.5
		c1.1,2.5,1.6,5.2,1.7,8.1c-0.1,1.1-0.5,1.9-1.3,2.6c-0.8,0.7-1.7,1-2.8,1l-31,0l-1.9-6.8l30.1,0l-1.5,1.4l0-2
		c-0.2-1.9-0.8-3.5-1.9-4.9c-1.1-1.4-2.5-2.5-4.1-3.3c-1.6-0.8-3.3-1.2-5.2-1.2c-1.6,0-3.1,0.3-4.6,0.8c-1.5,0.5-2.8,1.3-3.9,2.4
		c-1.1,1.1-2,2.6-2.7,4.4c-0.7,1.8-1,4.1-1,6.8c0,2.9,0.6,5.5,1.8,7.7c1.2,2.2,2.9,3.9,5,5.1s4.4,1.8,7,1.8c1.9,0,3.5-0.2,4.8-0.6
		c1.3-0.4,2.3-0.9,3.2-1.5c0.9-0.6,1.6-1.1,2.2-1.7c0.9-0.5,1.7-0.7,2.4-0.7c1,0,1.8,0.3,2.4,1c0.6,0.7,1,1.5,1,2.4
		c0,1.2-0.6,2.2-1.8,3.2c-1.4,1.4-3.4,2.6-6,3.7C282.6,211.2,279.9,211.8,277.1,211.8z"/>
	<path d="M344.5,168.2c1.1,0,2.1,0.4,2.8,1.2c0.8,0.8,1.2,1.7,1.2,2.9l0,34.6c0,1.2-0.4,2.1-1.2,2.9c-0.8,0.8-1.7,1.2-2.8,1.2
		c-1.2,0-2.1-0.4-2.9-1.2c-0.7-0.8-1.1-1.7-1.1-2.9l0-5.8l1.6,0.2c0,1-0.4,2-1.2,3.2c-0.8,1.2-1.8,2.3-3.2,3.4
		c-1.3,1.1-2.9,2-4.7,2.7c-1.8,0.7-3.8,1.1-5.8,1.1c-3.7,0-7-0.9-9.9-2.8c-2.9-1.9-5.3-4.5-7-7.8c-1.7-3.3-2.6-7.1-2.6-11.3
		c0-4.3,0.8-8.1,2.6-11.4c1.7-3.3,4-5.9,6.9-7.7c2.9-1.9,6.1-2.8,9.7-2.8c2.3,0,4.4,0.4,6.4,1.1c1.9,0.7,3.6,1.7,5.1,2.9
		c1.4,1.2,2.6,2.4,3.4,3.7c0.8,1.3,1.2,2.5,1.2,3.7l-2.5,0.2l0-7.3c0-1.1,0.4-2.1,1.1-2.9C342.4,168.6,343.4,168.2,344.5,168.2z
		 M328.2,204.4c2.5,0,4.7-0.6,6.6-1.9c1.9-1.3,3.4-3,4.4-5.2c1.1-2.2,1.6-4.7,1.6-7.4c0-2.8-0.5-5.3-1.6-7.4
		c-1.1-2.2-2.5-3.9-4.4-5.2c-1.9-1.3-4.1-1.9-6.6-1.9c-2.5,0-4.6,0.6-6.6,1.9s-3.4,3-4.5,5.2c-1.1,2.2-1.6,4.7-1.6,7.4
		c0,2.7,0.5,5.2,1.6,7.4c1.1,2.2,2.5,4,4.4,5.2C323.5,203.7,325.7,204.4,328.2,204.4z"/>
	<path d="M374.7,206.8c0,1.2-0.4,2.1-1.2,2.9c-0.8,0.8-1.7,1.2-2.8,1.2c-1.1,0-2.1-0.4-2.8-1.2c-0.8-0.8-1.2-1.7-1.2-2.9l0-51
		c0-1.2,0.4-2.1,1.2-2.9s1.8-1.2,2.9-1.2c1.2,0,2.1,0.4,2.8,1.2c0.7,0.8,1.1,1.7,1.1,2.9L374.7,206.8z"/>
	<path d="M442.9,168.1c3.7,0,7.1,0.9,10,2.8c2.9,1.9,5.2,4.4,6.9,7.6c1.7,3.2,2.6,7,2.6,11.2c0,4.3-0.8,8-2.6,11.3
		c-1.7,3.3-4,5.9-6.9,7.7c-2.9,1.9-6.1,2.8-9.8,2.8c-2,0-3.9-0.3-5.8-1c-1.8-0.6-3.4-1.5-4.8-2.5c-1.4-1-2.5-2.1-3.4-3.3
		c-0.9-1.2-1.4-2.3-1.6-3.3l2.2-1l0,22.3c0,1.2-0.4,2.1-1.2,2.9c-0.8,0.8-1.7,1.2-2.8,1.2c-1.2,0-2.1-0.4-2.9-1.2
		c-0.7-0.8-1.1-1.7-1.1-2.9l0-50.1c0-1.1,0.4-2.1,1.1-2.9c0.7-0.8,1.7-1.2,2.9-1.2c1.1,0,2.1,0.4,2.8,1.2c0.8,0.8,1.2,1.8,1.2,2.9
		l0,5.5l-1.3-0.7c0.2-1,0.7-2.1,1.5-3.2c0.9-1.1,1.9-2.1,3.2-3.1c1.3-1,2.8-1.7,4.5-2.3C439.3,168.4,441,168.1,442.9,168.1z
		 M442,175.4c-2.6,0-4.8,0.6-6.7,1.9c-1.9,1.3-3.4,2.9-4.4,5.1c-1.1,2.1-1.6,4.6-1.6,7.4c0,2.7,0.5,5.2,1.6,7.4
		c1.1,2.2,2.5,3.9,4.4,5.2c1.9,1.3,4.1,1.9,6.7,1.9c2.5,0,4.7-0.6,6.6-1.9c1.9-1.3,3.3-3,4.4-5.2c1.1-2.2,1.6-4.7,1.6-7.4
		s-0.6-5.2-1.6-7.3c-1.1-2.2-2.6-3.9-4.4-5.1C446.7,176,444.5,175.4,442,175.4z"/>
	<path d="M496.6,211.6c-4.4,0-8.2-0.9-11.5-2.8c-3.3-1.8-5.8-4.4-7.6-7.6c-1.8-3.2-2.7-6.9-2.7-11.1c0-4.7,0.9-8.7,2.8-12
		c1.9-3.3,4.4-5.9,7.4-7.7c3.1-1.8,6.3-2.7,9.7-2.7c2.6,0,5,0.5,7.4,1.6c2.4,1,4.5,2.5,6.3,4.3c1.8,1.8,3.3,4,4.3,6.5
		c1.1,2.5,1.6,5.2,1.7,8.1c-0.1,1.1-0.5,1.9-1.3,2.6c-0.8,0.7-1.7,1-2.8,1l-31,0l-1.9-6.8l30.1,0l-1.5,1.4l0-2
		c-0.2-1.9-0.8-3.5-1.9-4.9c-1.1-1.4-2.5-2.5-4.1-3.3c-1.6-0.8-3.3-1.2-5.2-1.2c-1.6,0-3.1,0.3-4.6,0.8c-1.5,0.5-2.8,1.3-3.9,2.4
		s-2,2.6-2.7,4.4c-0.7,1.8-1,4.1-1,6.8c0,2.9,0.6,5.5,1.8,7.7c1.2,2.2,2.9,3.9,5,5.1c2.1,1.2,4.4,1.8,7,1.8c1.9,0,3.5-0.2,4.8-0.6
		c1.3-0.4,2.3-0.9,3.2-1.5c0.9-0.6,1.6-1.1,2.2-1.7c0.9-0.5,1.7-0.7,2.4-0.7c1,0,1.8,0.3,2.4,1c0.6,0.7,1,1.5,1,2.4
		c0,1.2-0.6,2.2-1.8,3.2c-1.4,1.4-3.4,2.6-6,3.7C502,211.1,499.3,211.6,496.6,211.6z"/>
	<path d="M569.5,189.7c0,4.3-0.9,8-2.8,11.3c-1.9,3.3-4.4,5.9-7.6,7.7c-3.2,1.9-6.8,2.8-10.8,2.8c-3.9,0-7.5-0.9-10.8-2.8
		c-3.2-1.9-5.8-4.4-7.7-7.7c-1.9-3.3-2.8-7.1-2.8-11.3c0-4.3,0.9-8.1,2.8-11.4c1.9-3.3,4.4-5.9,7.7-7.8c3.2-1.9,6.8-2.8,10.8-2.8
		c4,0,7.6,0.9,10.8,2.8c3.2,1.9,5.7,4.5,7.6,7.8C568.6,181.6,569.5,185.4,569.5,189.7z M561.5,189.7c0-2.9-0.6-5.5-1.8-7.6
		c-1.2-2.2-2.8-3.9-4.8-5.1s-4.3-1.9-6.8-1.9c-2.5,0-4.7,0.6-6.7,1.9c-2,1.3-3.6,3-4.8,5.1c-1.2,2.2-1.8,4.7-1.8,7.6
		c0,2.8,0.6,5.3,1.8,7.5c1.2,2.2,2.8,3.9,4.8,5.1c2,1.2,4.2,1.8,6.7,1.8c2.5,0,4.8-0.6,6.8-1.8c2-1.2,3.6-2.9,4.8-5.1
		C560.9,195.1,561.5,192.6,561.5,189.7z"/>
	<path d="M605.7,168c3.7,0,7.1,0.9,10,2.8c2.9,1.9,5.2,4.4,6.9,7.6c1.7,3.2,2.6,7,2.6,11.2c0,4.3-0.8,8-2.6,11.3
		c-1.7,3.3-4,5.9-6.9,7.7c-2.9,1.9-6.1,2.8-9.8,2.8c-2,0-3.9-0.3-5.8-1c-1.8-0.6-3.4-1.5-4.8-2.5c-1.4-1-2.5-2.1-3.4-3.3
		s-1.4-2.3-1.6-3.3l2.2-1l0,22.3c0,1.2-0.4,2.1-1.2,2.9c-0.8,0.8-1.7,1.2-2.8,1.2c-1.2,0-2.1-0.4-2.9-1.2c-0.7-0.8-1.1-1.7-1.1-2.9
		l0-50.1c0-1.1,0.4-2.1,1.1-2.9c0.7-0.8,1.7-1.2,2.9-1.2c1.1,0,2.1,0.4,2.8,1.2c0.8,0.8,1.2,1.8,1.2,2.9l0,5.5l-1.3-0.7
		c0.2-1,0.7-2.1,1.5-3.2c0.9-1.1,1.9-2.1,3.2-3.1c1.3-1,2.8-1.7,4.5-2.3C602.2,168.2,603.9,168,605.7,168z M604.9,175.3
		c-2.6,0-4.8,0.6-6.7,1.9c-1.9,1.3-3.4,3-4.4,5.1c-1.1,2.1-1.6,4.6-1.6,7.4c0,2.7,0.5,5.2,1.6,7.4c1.1,2.2,2.5,3.9,4.4,5.2
		c1.9,1.3,4.1,1.9,6.7,1.9c2.5,0,4.7-0.6,6.6-1.9c1.9-1.3,3.3-3,4.4-5.2c1.1-2.2,1.6-4.7,1.6-7.4s-0.6-5.2-1.6-7.3
		c-1.1-2.2-2.6-3.9-4.4-5.1C609.6,175.9,607.4,175.3,604.9,175.3z"/>
	<path d="M648.9,206.6c0,1.2-0.4,2.1-1.2,2.9c-0.8,0.8-1.7,1.2-2.8,1.2c-1.1,0-2.1-0.4-2.8-1.2c-0.8-0.8-1.2-1.7-1.2-2.9l0-51
		c0-1.2,0.4-2.1,1.2-2.9c0.8-0.8,1.8-1.2,2.9-1.2c1.2,0,2.1,0.4,2.8,1.2c0.7,0.8,1.1,1.7,1.1,2.9L648.9,206.6z"/>
	<path d="M685.6,211.5c-4.4,0-8.2-0.9-11.5-2.8s-5.8-4.4-7.6-7.6c-1.8-3.2-2.7-6.9-2.7-11.1c0-4.7,0.9-8.7,2.8-12
		c1.9-3.3,4.4-5.9,7.4-7.7c3.1-1.8,6.3-2.7,9.7-2.7c2.6,0,5,0.5,7.4,1.6c2.4,1,4.5,2.5,6.3,4.3c1.8,1.8,3.3,4,4.3,6.5
		c1.1,2.5,1.6,5.2,1.7,8.1c-0.1,1.1-0.5,1.9-1.3,2.6c-0.8,0.7-1.7,1-2.8,1l-31,0l-1.9-6.8l30.1,0l-1.5,1.4l0-2
		c-0.2-1.9-0.8-3.5-1.9-4.9c-1.1-1.4-2.5-2.5-4.1-3.3c-1.6-0.8-3.3-1.2-5.2-1.2c-1.6,0-3.1,0.3-4.6,0.8c-1.5,0.5-2.8,1.3-3.9,2.4
		c-1.1,1.1-2,2.6-2.7,4.4c-0.7,1.8-1,4.1-1,6.8c0,2.9,0.6,5.5,1.8,7.7c1.2,2.2,2.9,3.9,5,5.1c2.1,1.2,4.4,1.8,7,1.8
		c1.9,0,3.5-0.2,4.8-0.6c1.3-0.4,2.3-0.9,3.2-1.5c0.9-0.6,1.6-1.1,2.2-1.7c0.9-0.5,1.7-0.7,2.4-0.7c1,0,1.8,0.3,2.4,1
		c0.6,0.7,1,1.5,1,2.4c0,1.2-0.6,2.2-1.8,3.2c-1.4,1.4-3.4,2.6-6,3.7C691,211,688.4,211.5,685.6,211.5z"/>
	<path d="M728.7,210.2c0,1-0.3,2.1-0.8,3.3c-0.5,1.3-1.2,2.5-2,3.6c-0.8,1.2-1.8,2.1-2.8,2.9c-1,0.7-2.1,1.1-3.2,1.1
		c-0.9,0-1.6-0.2-2.2-0.6s-1-1.1-1-2.1c0-1.1,0.4-1.8,1.1-2c0.7-0.2,1.4-0.5,2-0.7c0.7-0.4,1.2-0.9,1.6-1.4c0.4-0.6,0.6-1.3,0.6-2
		c0-0.6-0.2-1.1-0.7-1.5c-0.5-0.4-1.1-0.6-1.9-0.6c-0.3,0-0.7,0-1.1,0.1c-0.4,0.1-0.8,0.2-1.1,0.4c-0.5-0.3-0.9-0.6-1.2-1
		c-0.3-0.4-0.5-0.9-0.5-1.7c0-1,0.3-1.9,1-2.7c0.7-0.8,1.6-1.4,2.6-1.8c1-0.5,2-0.7,2.9-0.7c2,0,3.6,0.6,4.8,1.9
		C728.1,206,728.7,207.8,728.7,210.2z"/>
	<path d="M780.6,210.6c-1.2,0-2.1-0.4-2.9-1.2c-0.7-0.8-1.1-1.7-1.1-2.9l0-33.9c0-1.2,0.4-2.1,1.1-2.9c0.7-0.8,1.7-1.2,2.9-1.2
		c1.1,0,2.1,0.4,2.8,1.2c0.8,0.8,1.2,1.7,1.2,2.9l0,9l-0.8-3.4c0.4-1.5,1.1-2.9,2-4.2c0.9-1.3,1.9-2.4,3.2-3.4
		c1.2-1,2.6-1.7,4.1-2.2c1.5-0.5,3.1-0.8,4.8-0.8c1.4,0,2.6,0.4,3.6,1.1c1,0.7,1.5,1.7,1.5,2.8c0,1.4-0.4,2.5-1.1,3.2
		c-0.7,0.7-1.6,1-2.5,1c-0.8,0-1.6-0.2-2.3-0.5c-0.7-0.3-1.6-0.5-2.6-0.5c-1.1,0-2.3,0.3-3.4,0.9c-1.2,0.6-2.2,1.5-3.2,2.6
		c-1,1.1-1.7,2.5-2.3,4c-0.6,1.5-0.8,3.3-0.8,5.2l0,19.2c0,1.2-0.4,2.1-1.2,2.9C782.7,210.2,781.8,210.6,780.6,210.6z"/>
	<path d="M833.9,211.4c-4.4,0-8.2-0.9-11.5-2.8c-3.3-1.8-5.8-4.4-7.6-7.6c-1.8-3.2-2.7-6.9-2.7-11.1c0-4.7,0.9-8.7,2.8-12
		c1.9-3.3,4.4-5.9,7.4-7.7c3.1-1.8,6.3-2.7,9.7-2.7c2.6,0,5,0.5,7.4,1.6c2.4,1,4.5,2.5,6.3,4.3c1.8,1.8,3.3,4,4.3,6.5
		c1.1,2.5,1.6,5.2,1.7,8.1c-0.1,1.1-0.5,1.9-1.3,2.6s-1.7,1-2.8,1l-31,0l-1.9-6.8l30.1,0l-1.5,1.4l0-2c-0.2-1.9-0.8-3.5-1.9-4.9
		c-1.1-1.4-2.5-2.5-4.1-3.3c-1.6-0.8-3.3-1.2-5.2-1.2c-1.6,0-3.1,0.3-4.6,0.8c-1.5,0.5-2.8,1.3-3.9,2.4c-1.1,1.1-2,2.6-2.7,4.4
		c-0.7,1.8-1,4.1-1,6.8c0,2.9,0.6,5.5,1.8,7.7c1.2,2.2,2.9,3.9,5,5.1c2.1,1.2,4.4,1.8,7,1.8c1.9,0,3.5-0.2,4.8-0.6
		c1.3-0.4,2.3-0.9,3.2-1.5c0.9-0.6,1.6-1.1,2.2-1.7c0.9-0.5,1.7-0.7,2.4-0.7c1,0,1.8,0.3,2.4,1c0.6,0.7,1,1.5,1,2.4
		c0,1.2-0.6,2.2-1.8,3.2c-1.4,1.4-3.4,2.6-6,3.7C839.3,210.9,836.7,211.4,833.9,211.4z"/>
	<path d="M901.3,167.8c1.1,0,2.1,0.4,2.8,1.2c0.8,0.8,1.2,1.7,1.2,2.9l0,34.6c0,1.2-0.4,2.1-1.2,2.9c-0.8,0.8-1.7,1.2-2.8,1.2
		c-1.2,0-2.1-0.4-2.9-1.2c-0.7-0.8-1.1-1.7-1.1-2.9l0-5.8l1.6,0.2c0,1-0.4,2-1.2,3.2c-0.8,1.2-1.8,2.3-3.2,3.4
		c-1.3,1.1-2.9,2-4.7,2.7c-1.8,0.7-3.8,1.1-5.8,1.1c-3.7,0-7-0.9-9.9-2.8s-5.3-4.5-7-7.8c-1.7-3.3-2.6-7.1-2.6-11.3
		c0-4.3,0.8-8.1,2.6-11.4c1.7-3.3,4-5.9,6.9-7.7s6.1-2.8,9.7-2.8c2.3,0,4.4,0.4,6.4,1.1c1.9,0.7,3.6,1.7,5.1,2.9
		c1.4,1.2,2.6,2.4,3.4,3.7c0.8,1.3,1.2,2.5,1.2,3.7l-2.5,0.2l0-7.3c0-1.1,0.4-2.1,1.1-2.9C899.2,168.2,900.2,167.8,901.3,167.8z
		 M885,204c2.5,0,4.7-0.6,6.6-1.9c1.9-1.3,3.4-3,4.4-5.2c1.1-2.2,1.6-4.7,1.6-7.4c0-2.8-0.5-5.3-1.6-7.4c-1.1-2.2-2.5-3.9-4.4-5.2
		c-1.9-1.3-4.1-1.9-6.6-1.9c-2.5,0-4.6,0.6-6.6,1.9s-3.4,3-4.5,5.2c-1.1,2.2-1.6,4.7-1.6,7.4c0,2.7,0.5,5.2,1.6,7.4
		c1.1,2.2,2.5,4,4.4,5.2C880.3,203.4,882.5,204,885,204z"/>
	<path d="M931.5,206.4c0,1.2-0.4,2.1-1.2,2.9c-0.8,0.8-1.7,1.2-2.8,1.2c-1.1,0-2.1-0.4-2.8-1.2s-1.2-1.7-1.2-2.9l0-51
		c0-1.2,0.4-2.1,1.2-2.9c0.8-0.8,1.8-1.2,2.9-1.2c1.2,0,2.1,0.4,2.8,1.2c0.7,0.8,1.1,1.7,1.1,2.9L931.5,206.4z"/>
	<path d="M1001.4,167.7c1.1,0,2.1,0.4,2.8,1.2c0.8,0.8,1.2,1.7,1.2,2.9l0,34.6c0,1.2-0.4,2.1-1.2,2.9c-0.8,0.8-1.7,1.2-2.8,1.2
		c-1.2,0-2.1-0.4-2.9-1.2c-0.7-0.8-1.1-1.7-1.1-2.9l0-5.8l1.6,0.2c0,1-0.4,2-1.2,3.2c-0.8,1.2-1.8,2.3-3.2,3.4
		c-1.3,1.1-2.9,2-4.7,2.7c-1.8,0.7-3.8,1.1-5.8,1.1c-3.7,0-7-0.9-9.9-2.8c-2.9-1.9-5.3-4.5-7-7.8c-1.7-3.3-2.6-7.1-2.6-11.3
		c0-4.3,0.8-8.1,2.6-11.4c1.7-3.3,4-5.9,6.9-7.7c2.9-1.9,6.1-2.8,9.7-2.8c2.3,0,4.4,0.4,6.4,1.1c1.9,0.7,3.6,1.7,5.1,2.9
		c1.4,1.2,2.6,2.4,3.4,3.7c0.8,1.3,1.2,2.5,1.2,3.7l-2.5,0.2l0-7.3c0-1.1,0.4-2.1,1.1-2.9C999.3,168.2,1000.2,167.8,1001.4,167.7z
		 M985.1,203.9c2.5,0,4.7-0.6,6.6-1.9c1.9-1.3,3.4-3,4.4-5.2c1.1-2.2,1.6-4.7,1.6-7.4c0-2.8-0.5-5.3-1.6-7.4
		c-1.1-2.2-2.5-3.9-4.4-5.2c-1.9-1.3-4.1-1.9-6.6-1.9c-2.5,0-4.6,0.6-6.6,1.9c-1.9,1.3-3.4,3-4.5,5.2c-1.1,2.2-1.6,4.7-1.6,7.4
		c0,2.7,0.5,5.2,1.6,7.4c1.1,2.2,2.5,4,4.4,5.2C980.4,203.3,982.6,203.9,985.1,203.9z"/>
	<path d="M1044.6,167.4c3.8,0,6.7,0.8,8.8,2.4s3.5,3.7,4.4,6.3c0.8,2.6,1.2,5.6,1.2,8.8l0,21.4c0,1.2-0.4,2.1-1.2,2.9
		c-0.8,0.8-1.7,1.2-2.8,1.2c-1.2,0-2.1-0.4-2.9-1.2c-0.7-0.8-1.1-1.7-1.1-2.9l0-21.4c0-1.9-0.3-3.6-0.8-5.2
		c-0.5-1.5-1.5-2.7-2.8-3.7c-1.3-0.9-3.1-1.4-5.5-1.4c-2.2,0-4.1,0.5-5.8,1.4c-1.7,0.9-2.9,2.2-3.9,3.7c-0.9,1.5-1.4,3.2-1.4,5.2
		l0,21.4c0,1.2-0.4,2.1-1.2,2.9c-0.8,0.8-1.7,1.2-2.8,1.2c-1.2,0-2.1-0.4-2.9-1.2c-0.7-0.8-1.1-1.7-1.1-2.9l0-33.9
		c0-1.2,0.4-2.1,1.1-2.9c0.7-0.8,1.7-1.2,2.9-1.2c1.1,0,2.1,0.4,2.8,1.2c0.8,0.8,1.2,1.7,1.2,2.9l0,4.5l-1.4,0.8
		c0.4-1.2,1-2.4,2-3.6c0.9-1.2,2.1-2.3,3.4-3.4c1.3-1,2.8-1.9,4.5-2.5C1041,167.7,1042.7,167.4,1044.6,167.4z"/>
	<path d="M1074.1,203.9c-0.5-0.7-0.7-1.6-0.6-2.6c0.1-1,0.6-1.8,1.7-2.5c0.7-0.5,1.5-0.7,2.4-0.6c0.8,0.1,1.6,0.5,2.4,1.2
		c1.5,1.7,3.2,3,5,3.9c1.8,1,4.1,1.4,6.7,1.4c1.1-0.1,2.2-0.2,3.3-0.5c1.1-0.3,2.1-0.8,2.9-1.6c0.8-0.8,1.2-1.9,1.2-3.4
		c0-1.3-0.4-2.4-1.3-3.2c-0.9-0.8-2-1.5-3.4-2c-1.4-0.5-2.9-1-4.5-1.4c-1.7-0.5-3.4-1-5.2-1.6c-1.7-0.6-3.3-1.3-4.7-2.3
		c-1.4-0.9-2.5-2.1-3.4-3.6c-0.9-1.5-1.3-3.3-1.3-5.5c0-2.5,0.7-4.7,2.1-6.5c1.4-1.8,3.3-3.2,5.5-4.2c2.3-1,4.7-1.5,7.4-1.5
		c1.5,0,3.2,0.2,4.9,0.6c1.7,0.4,3.4,1,5,1.9s3,2,4.2,3.4c0.5,0.7,0.8,1.5,0.9,2.5c0.1,1-0.4,1.8-1.3,2.6c-0.6,0.5-1.4,0.8-2.3,0.7
		c-0.9-0.1-1.7-0.3-2.2-0.9c-1-1.3-2.3-2.3-3.9-3c-1.6-0.7-3.4-1.1-5.4-1.1c-1,0-2.1,0.1-3.2,0.4c-1.1,0.3-2,0.8-2.8,1.6
		c-0.7,0.7-1.1,1.8-1.1,3.3c0,1.3,0.4,2.4,1.3,3.2s2,1.5,3.5,2c1.4,0.5,3,1,4.7,1.4c1.7,0.4,3.3,0.9,4.9,1.5
		c1.6,0.6,3.1,1.3,4.4,2.3c1.3,0.9,2.4,2.1,3.2,3.6c0.8,1.5,1.2,3.3,1.2,5.6c0,2.6-0.8,4.8-2.3,6.7c-1.5,1.8-3.4,3.2-5.8,4.2
		c-2.3,1-4.8,1.4-7.3,1.4c-3,0-6.1-0.5-9.1-1.6C1078.7,208.5,1076.2,206.6,1074.1,203.9z"/>
	<path d="M1170.2,167.9c1,0,1.9,0.4,2.7,1.2c0.8,0.8,1.2,1.8,1.2,3c0,0.3,0,0.5-0.1,0.8s-0.1,0.5-0.2,0.7l-12.2,34.2
		c-0.3,0.9-0.9,1.6-1.7,2c-0.8,0.5-1.6,0.6-2.5,0.5c-1.5-0.1-2.7-1-3.4-2.6l-9.1-24l1.8,0.2l-8.3,23.8c-0.7,1.6-1.9,2.5-3.4,2.6
		c-0.8,0.1-1.6-0.1-2.4-0.5c-0.8-0.5-1.4-1.1-1.7-2l-12.3-34.2c-0.2-0.5-0.3-1-0.3-1.5c0-1.1,0.4-2.1,1.1-2.9
		c0.7-0.8,1.7-1.2,2.9-1.2c0.9,0,1.6,0.2,2.3,0.6s1.1,1.1,1.4,1.9l10.3,28.9l-1.8-0.2l8.3-21.8c0.7-1.7,1.9-2.5,3.7-2.5
		c1,0,1.7,0.2,2.2,0.6c0.5,0.4,1,1,1.3,1.8l8.5,21.9l-2.2,0.2l10.3-29C1166.9,168.7,1168.2,167.9,1170.2,167.9z"/>
	<path d="M1207.8,211.1c-4.4,0-8.2-0.9-11.5-2.8c-3.3-1.8-5.8-4.4-7.6-7.6c-1.8-3.2-2.7-6.9-2.7-11.1c0-4.7,0.9-8.7,2.8-12
		c1.9-3.3,4.4-5.9,7.4-7.7c3.1-1.8,6.3-2.7,9.7-2.7c2.6,0,5,0.5,7.4,1.6c2.4,1,4.5,2.5,6.3,4.3c1.8,1.8,3.3,4,4.3,6.5
		c1.1,2.5,1.6,5.2,1.7,8.1c-0.1,1.1-0.5,1.9-1.3,2.6c-0.8,0.7-1.7,1-2.8,1l-31,0l-1.9-6.8l30.1,0l-1.5,1.4l0-2
		c-0.2-1.9-0.8-3.5-1.9-4.9c-1.1-1.4-2.5-2.5-4.1-3.3c-1.6-0.8-3.3-1.2-5.2-1.2c-1.6,0-3.1,0.3-4.6,0.8c-1.5,0.5-2.8,1.3-3.9,2.4
		c-1.1,1.1-2,2.6-2.7,4.4c-0.7,1.8-1,4.1-1,6.8c0,2.9,0.6,5.5,1.8,7.7c1.2,2.2,2.9,3.9,5,5.1c2.1,1.2,4.4,1.8,7,1.8
		c1.9,0,3.5-0.2,4.8-0.6c1.3-0.4,2.3-0.9,3.2-1.5c0.9-0.6,1.6-1.1,2.2-1.7c0.9-0.5,1.7-0.7,2.4-0.7c1,0,1.8,0.3,2.4,1
		c0.6,0.7,1,1.5,1,2.4c0,1.2-0.6,2.2-1.8,3.2c-1.4,1.4-3.4,2.6-6,3.7C1213.3,210.6,1210.6,211.1,1207.8,211.1z"/>
	<path d="M1244.8,210.3c-1.2,0-2.1-0.4-2.9-1.2c-0.7-0.8-1.1-1.7-1.1-2.9l0-33.9c0-1.2,0.4-2.1,1.1-2.9c0.7-0.8,1.7-1.2,2.9-1.2
		c1.1,0,2.1,0.4,2.8,1.2c0.8,0.8,1.2,1.7,1.2,2.9l0,9l-0.8-3.4c0.4-1.5,1.1-2.9,2-4.2s1.9-2.4,3.2-3.4c1.2-1,2.6-1.7,4.1-2.2
		c1.5-0.5,3.1-0.8,4.8-0.8c1.4,0,2.6,0.4,3.6,1.1c1,0.7,1.5,1.7,1.5,2.8c0,1.4-0.4,2.5-1.1,3.2c-0.7,0.7-1.6,1-2.5,1
		c-0.8,0-1.6-0.2-2.3-0.5c-0.7-0.3-1.6-0.5-2.6-0.5c-1.1,0-2.3,0.3-3.4,0.9c-1.2,0.6-2.2,1.5-3.2,2.6c-1,1.1-1.7,2.5-2.3,4
		c-0.6,1.5-0.8,3.3-0.8,5.2l0,19.2c0,1.2-0.4,2.1-1.2,2.9C1246.9,209.9,1245.9,210.3,1244.8,210.3z"/>
	<path d="M1278.1,203.7c-0.5-0.7-0.7-1.6-0.6-2.6c0.1-1,0.6-1.8,1.7-2.5c0.7-0.5,1.5-0.7,2.4-0.6c0.8,0.1,1.6,0.5,2.4,1.2
		c1.5,1.7,3.2,3,5,3.9c1.8,1,4.1,1.4,6.7,1.4c1.1-0.1,2.2-0.2,3.3-0.5c1.1-0.3,2.1-0.8,2.9-1.6c0.8-0.8,1.2-1.9,1.2-3.4
		c0-1.3-0.4-2.4-1.3-3.2c-0.9-0.8-2-1.5-3.4-2c-1.4-0.5-2.9-1-4.5-1.4c-1.7-0.5-3.4-1-5.2-1.6c-1.7-0.6-3.3-1.3-4.7-2.3
		c-1.4-0.9-2.5-2.1-3.4-3.6c-0.9-1.5-1.3-3.3-1.3-5.5c0-2.5,0.7-4.7,2.1-6.5c1.4-1.8,3.3-3.2,5.5-4.2c2.3-1,4.7-1.5,7.4-1.5
		c1.5,0,3.2,0.2,4.9,0.6c1.7,0.4,3.4,1,5,1.9c1.6,0.9,3,2,4.2,3.4c0.5,0.7,0.8,1.5,0.9,2.5c0.1,1-0.4,1.8-1.3,2.6
		c-0.6,0.5-1.4,0.8-2.3,0.7c-0.9-0.1-1.7-0.3-2.2-0.9c-1-1.3-2.3-2.3-3.9-3c-1.6-0.7-3.4-1.1-5.4-1.1c-1,0-2.1,0.1-3.2,0.4
		s-2,0.8-2.8,1.6c-0.7,0.7-1.1,1.8-1.1,3.3c0,1.3,0.4,2.4,1.3,3.2c0.9,0.8,2,1.5,3.5,2c1.4,0.5,3,1,4.7,1.4c1.7,0.4,3.3,0.9,4.9,1.5
		c1.6,0.6,3.1,1.3,4.4,2.3c1.3,0.9,2.4,2.1,3.2,3.6c0.8,1.5,1.2,3.3,1.2,5.6c0,2.6-0.8,4.8-2.3,6.7c-1.5,1.8-3.4,3.2-5.8,4.2
		c-2.3,1-4.8,1.4-7.3,1.4c-3,0-6.1-0.5-9.1-1.6C1282.8,208.3,1280.2,206.4,1278.1,203.7z"/>
</g>
<rect x="-475.2" y="533" style="fill:none;" width="7.5" height="1.5"/>
<g style="display:none;">
</g>
<polygon style="fill:none;" points="416.2,316.4 423.2,316.4 423.2,316.4 416.2,316.4 "/>
<g style="display:none;">
</g>
</svg>
