<?xml version="1.0" encoding="utf-8"?>
<!-- Generator: Adobe Illustrator 22.0.1, SVG Export Plug-In . SVG Version: 6.00 Build 0)  -->
<svg version="1.1" id="Layer_1" xmlns="http://www.w3.org/2000/svg" xmlns:xlink="http://www.w3.org/1999/xlink" x="0px" y="0px"
	 viewBox="0 0 679.7 374.3" style="enable-background:new 0 0 679.7 374.3;" xml:space="preserve">
<style type="text/css">
	.st0{fill:url(#SVGID_1_);}
	.st1{fill:#FFFFFF;}
</style>
<linearGradient id="SVGID_1_" gradientUnits="userSpaceOnUse" x1="342.2732" y1="351.6021" x2="342.2732" y2="23.6021">
	<stop  offset="0" style="stop-color:#005B97"/>
	<stop  offset="5.174784e-02" style="stop-color:#0061A0"/>
	<stop  offset="0.1375" style="stop-color:#0072BA"/>
	<stop  offset="0.15" style="stop-color:#0075BE"/>
	<stop  offset="0.4" style="stop-color:#0096BE"/>
</linearGradient>
<path class="st0" d="M608.8,351.6h-533c-24.6,0-44.8-20.1-44.8-44.8V68.4c0-24.6,20.1-44.8,44.8-44.8h533
	c24.6,0,44.8,20.1,44.8,44.8v238.5C653.5,331.5,633.4,351.6,608.8,351.6z"/>
<g>
	<circle class="st1" cx="340.6" cy="187.6" r="34.2"/>
	<circle class="st1" cx="231.1" cy="187.1" r="28.6"/>
	<circle class="st1" cx="135.1" cy="187.1" r="22.9"/>
</g>
<path class="st1" d="M550.5,305.6h-34.8c-9.3,0-14.4-5.1-14.4-14.4v-64.4l-54.2,70.5c-4.8,6.1-10.2,8.3-17.5,8.3h-40.8
	c-12.4,0-15.8-7.8-8-17.5l82.3-102.7l-81-97.9c-7.7-9.6-4.1-17.5,8.3-17.5h38c7.3,0,12.8,1.9,17.5,8l55.5,70.5V83.9
	c0-9.3,5.1-14.4,14.4-14.4h34.8c9.3,0,14.4,5.1,14.4,14.4v207.4C564.9,300.5,559.8,305.6,550.5,305.6z"/>
</svg>
